<?xml version="1.0" standalone="no"?>
<!DOCTYPE svg PUBLIC "-//W3C//DTD SVG 20010904//EN"
 "http://www.w3.org/TR/2001/REC-SVG-20010904/DTD/svg10.dtd">
<svg version="1.0" xmlns="http://www.w3.org/2000/svg"
 width="260.000000pt" height="260.000000pt" viewBox="0 0 260.000000 260.000000"
 preserveAspectRatio="xMidYMid meet">
<metadata>
Created by potrace 1.14, written by Peter Selinger 2001-2017
</metadata>
<g transform="translate(0.000000,260.000000) scale(0.100000,-0.100000)"
fill="#000000" stroke="none">
<path d="M361 2584 c-152 -41 -272 -150 -333 -302 -20 -52 -23 -76 -25 -267
-3 -233 2 -269 52 -370 59 -123 173 -214 311 -250 78 -20 413 -20 493 1 169
44 301 178 346 350 12 46 15 104 12 269 -3 193 -5 215 -26 270 -59 150 -181
259 -332 299 -77 20 -424 20 -498 0z"/>
<path d="M1745 2586 c-164 -40 -307 -183 -350 -348 -20 -79 -20 -415 0 -492
36 -137 126 -250 247 -311 101 -50 153 -58 382 -53 181 4 207 7 261 28 156 60
272 196 305 356 19 89 8 445 -15 509 -55 151 -183 269 -336 309 -71 18 -422
20 -494 2z"/>
<path d="M365 1205 c-177 -49 -296 -166 -348 -343 -12 -40 -16 -99 -16 -250 1
-218 9 -266 60 -363 28 -52 122 -159 140 -159 4 0 14 -6 21 -13 7 -8 45 -27
83 -43 l70 -29 230 0 c255 0 290 6 390 70 50 31 135 111 135 126 0 4 6 14 13
21 8 7 27 45 43 83 28 68 29 76 32 274 3 167 1 217 -13 274 -41 169 -178 307
-348 351 -73 19 -424 20 -492 1z"/>
<path d="M1741 1204 c-133 -36 -247 -128 -307 -249 -46 -94 -54 -147 -54 -354
0 -147 3 -189 21 -250 39 -142 142 -258 282 -316 l72 -30 225 0 c124 0 236 3
250 7 177 46 308 177 355 354 21 79 19 425 -2 499 -50 170 -179 296 -348 340
-80 20 -416 20 -494 -1z"/>
</g>
</svg>
